<?xml version="1.0" encoding="utf-8"?>
<!-- Generator: Adobe Illustrator 21.0.0, SVG Export Plug-In . SVG Version: 6.00 Build 0)  -->
<svg version="1.1" id="Layer_1" xmlns="http://www.w3.org/2000/svg" xmlns:xlink="http://www.w3.org/1999/xlink" x="0px" y="0px"
	 viewBox="0 0 32 32" style="enable-background:new 0 0 32 32;" xml:space="preserve">
<path d="M1.1,16.6C1.1,16.6,1.1,16.6,1.1,16.6C1,16.4,1,16.2,1,16s0-0.4,0.1-0.5c0,0,0,0,0,0c0.1-0.2,0.2-0.4,0.3-0.5l10-10
	c0.6-0.6,1.5-0.6,2.1,0c0.6,0.6,0.6,1.5,0,2.1l-7.4,7.4h23.4c0.8,0,1.5,0.7,1.5,1.5s-0.7,1.5-1.5,1.5H6.1l7.4,7.4
	c0.6,0.6,0.6,1.5,0,2.1c-0.6,0.6-1.5,0.6-2.1,0l-10-10C1.3,16.9,1.2,16.8,1.1,16.6z"/>
</svg>
