<svg xmlns="http://www.w3.org/2000/svg" viewBox="0 0 32 32"><path d="M16 .5C7.5.5.5 7.5.5 16s7 15.5 15.5 15.5 15.5-7 15.5-15.5S24.5.5 16 .5zm0 28a12.5 12.5 0 1 1 0-25 12.5 12.5 0 0 1 0 25z"/><path d="M21 11.5c.8 0 1.5-.7 1.5-1.5s-.7-1.5-1.5-1.5h-3.5V7c0-.8-.7-1.5-1.5-1.5s-1.5.7-1.5 1.5v1.5H11c-.8 0-1.5.7-1.5 1.5v6c0 .8.7 1.5 1.5 1.5h3.5v3H11c-.8 0-1.5.7-1.5 1.5s.7 1.5 1.5 1.5h3.5V25c0 .8.7 1.5 1.5 1.5s1.5-.7 1.5-1.5v-1.5H21c.8 0 1.5-.7 1.5-1.5v-6c0-.8-.7-1.5-1.5-1.5h-3.5v-3H21zm-6.5 3h-2v-3h2v3zm5 3v3h-2v-3h2z"/></svg>