<svg xmlns="http://www.w3.org/2000/svg" viewBox="0 0 32 32"><path d="M24 31.5H8A7.6 7.6 0 0 1 .5 24V9C.5 7.1 2.1 5.5 4 5.5h24c1.9 0 3.5 1.6 3.5 3.5v15c0 4.1-3.4 7.5-7.5 7.5zM4 8.5c-.3 0-.5.2-.5.5v15c0 2.5 2 4.5 4.5 4.5h16c2.5 0 4.5-2 4.5-4.5V9c0-.3-.2-.5-.5-.5H4z"/><path d="M9.5 8C8.7 8 8 7.3 8 6.5v-4C8 1.7 8.7 1 9.5 1s1.5.7 1.5 1.5v4c0 .8-.7 1.5-1.5 1.5zM22.5 8c-.8 0-1.5-.7-1.5-1.5v-4c0-.8.7-1.5 1.5-1.5s1.5.7 1.5 1.5v4c0 .8-.7 1.5-1.5 1.5zM24.5 14h-3c-.8 0-1.5-.7-1.5-1.5s.7-1.5 1.5-1.5h3c.8 0 1.5.7 1.5 1.5s-.7 1.5-1.5 1.5zM17.5 14h-3c-.8 0-1.5-.7-1.5-1.5s.7-1.5 1.5-1.5h3c.8 0 1.5.7 1.5 1.5s-.7 1.5-1.5 1.5zM10.5 14h-3c-.8 0-1.5-.7-1.5-1.5S6.7 11 7.5 11h3c.8 0 1.5.7 1.5 1.5s-.7 1.5-1.5 1.5zM24.5 19h-3c-.8 0-1.5-.7-1.5-1.5s.7-1.5 1.5-1.5h3c.8 0 1.5.7 1.5 1.5s-.7 1.5-1.5 1.5zM17.5 19h-3c-.8 0-1.5-.7-1.5-1.5s.7-1.5 1.5-1.5h3c.8 0 1.5.7 1.5 1.5s-.7 1.5-1.5 1.5zM10.5 19h-3c-.8 0-1.5-.7-1.5-1.5S6.7 16 7.5 16h3c.8 0 1.5.7 1.5 1.5s-.7 1.5-1.5 1.5zM24.5 24h-3c-.8 0-1.5-.7-1.5-1.5s.7-1.5 1.5-1.5h3c.8 0 1.5.7 1.5 1.5s-.7 1.5-1.5 1.5zM17.5 24h-3c-.8 0-1.5-.7-1.5-1.5s.7-1.5 1.5-1.5h3c.8 0 1.5.7 1.5 1.5s-.7 1.5-1.5 1.5zM10.5 24h-3c-.8 0-1.5-.7-1.5-1.5S6.7 21 7.5 21h3c.8 0 1.5.7 1.5 1.5s-.7 1.5-1.5 1.5z"/></svg>