<?xml version="1.0" encoding="utf-8"?>
<!-- Generator: Adobe Illustrator 21.0.0, SVG Export Plug-In . SVG Version: 6.00 Build 0)  -->
<svg version="1.1" id="Layer_1" xmlns="http://www.w3.org/2000/svg" xmlns:xlink="http://www.w3.org/1999/xlink" x="0px" y="0px"
	 viewBox="0 0 32 32" style="enable-background:new 0 0 32 32;" xml:space="preserve">
<path d="M24,31.5H8c-4.1,0-7.5-3.4-7.5-7.5V9c0-1.9,1.6-3.5,3.5-3.5h24c1.9,0,3.5,1.6,3.5,3.5v15C31.5,28.1,28.1,31.5,24,31.5z
	 M4,8.5C3.7,8.5,3.5,8.7,3.5,9v15c0,2.5,2,4.5,4.5,4.5h16c2.5,0,4.5-2,4.5-4.5V9c0-0.3-0.2-0.5-0.5-0.5H4z"/>
<path d="M9.5,8C8.7,8,8,7.3,8,6.5v-4C8,1.7,8.7,1,9.5,1S11,1.7,11,2.5v4C11,7.3,10.3,8,9.5,8z"/>
<path d="M22.5,8C21.7,8,21,7.3,21,6.5v-4C21,1.7,21.7,1,22.5,1S24,1.7,24,2.5v4C24,7.3,23.3,8,22.5,8z"/>
<path d="M24.5,14h-3c-0.8,0-1.5-0.7-1.5-1.5s0.7-1.5,1.5-1.5h3c0.8,0,1.5,0.7,1.5,1.5S25.3,14,24.5,14z"/>
<path d="M17.5,14h-3c-0.8,0-1.5-0.7-1.5-1.5s0.7-1.5,1.5-1.5h3c0.8,0,1.5,0.7,1.5,1.5S18.3,14,17.5,14z"/>
<path d="M10.5,14h-3C6.7,14,6,13.3,6,12.5S6.7,11,7.5,11h3c0.8,0,1.5,0.7,1.5,1.5S11.3,14,10.5,14z"/>
<path d="M24.5,19h-3c-0.8,0-1.5-0.7-1.5-1.5c0-0.8,0.7-1.5,1.5-1.5h3c0.8,0,1.5,0.7,1.5,1.5C26,18.3,25.3,19,24.5,19z"/>
<path d="M17.5,19h-3c-0.8,0-1.5-0.7-1.5-1.5c0-0.8,0.7-1.5,1.5-1.5h3c0.8,0,1.5,0.7,1.5,1.5C19,18.3,18.3,19,17.5,19z"/>
<path d="M10.5,19h-3C6.7,19,6,18.3,6,17.5C6,16.7,6.7,16,7.5,16h3c0.8,0,1.5,0.7,1.5,1.5C12,18.3,11.3,19,10.5,19z"/>
<path d="M24.5,24h-3c-0.8,0-1.5-0.7-1.5-1.5s0.7-1.5,1.5-1.5h3c0.8,0,1.5,0.7,1.5,1.5S25.3,24,24.5,24z"/>
<path d="M17.5,24h-3c-0.8,0-1.5-0.7-1.5-1.5s0.7-1.5,1.5-1.5h3c0.8,0,1.5,0.7,1.5,1.5S18.3,24,17.5,24z"/>
<path d="M10.5,24h-3C6.7,24,6,23.3,6,22.5S6.7,21,7.5,21h3c0.8,0,1.5,0.7,1.5,1.5S11.3,24,10.5,24z"/>
</svg>
