<svg xmlns="http://www.w3.org/2000/svg" viewBox="0 0 32 32"><path d="M27 31.5H5c-2.5 0-4.5-2-4.5-4.5V5C.5 2.5 2.5.5 5 .5h22c2.5 0 4.5 2 4.5 4.5v22c0 2.5-2 4.5-4.5 4.5zM5 3.5c-.8 0-1.5.7-1.5 1.5v22c0 .8.7 1.5 1.5 1.5h22c.8 0 1.5-.7 1.5-1.5V5c0-.8-.7-1.5-1.5-1.5H5z"/><path d="M19.3 10h-6.5c-.8 0-1.5-.7-1.5-1.5S11.9 7 12.8 7h6.5c.8 0 1.5.7 1.5 1.5s-.7 1.5-1.5 1.5zM19.3 25h-6.5c-.8 0-1.5-.7-1.5-1.5S12 22 12.8 22h6.5c.8 0 1.5.7 1.5 1.5s-.7 1.5-1.5 1.5zM24.3 15H7.8c-.8 0-1.5-.7-1.5-1.5S6.9 12 7.8 12h16.5c.8 0 1.5.7 1.5 1.5s-.7 1.5-1.5 1.5zM24.3 20H7.8c-.8 0-1.5-.7-1.5-1.5S6.9 17 7.8 17h16.5c.8 0 1.5.7 1.5 1.5s-.7 1.5-1.5 1.5z"/></svg>