<?xml version="1.0" encoding="utf-8"?>
<!-- Generator: Adobe Illustrator 21.0.0, SVG Export Plug-In . SVG Version: 6.00 Build 0)  -->
<svg version="1.1" id="Layer_1" xmlns="http://www.w3.org/2000/svg" xmlns:xlink="http://www.w3.org/1999/xlink" x="0px" y="0px"
	 viewBox="0 0 32 32" style="enable-background:new 0 0 32 32;" xml:space="preserve">
<path d="M27,31.5H5c-2.5,0-4.5-2-4.5-4.5V5c0-2.5,2-4.5,4.5-4.5h22c2.5,0,4.5,2,4.5,4.5v22C31.5,29.5,29.5,31.5,27,31.5z M5,3.5
	C4.2,3.5,3.5,4.2,3.5,5v22c0,0.8,0.7,1.5,1.5,1.5h22c0.8,0,1.5-0.7,1.5-1.5V5c0-0.8-0.7-1.5-1.5-1.5H5z"/>
<path d="M19.3,10h-6.5c-0.8,0-1.5-0.7-1.5-1.5S11.9,7,12.8,7h6.5c0.8,0,1.5,0.7,1.5,1.5S20.1,10,19.3,10z"/>
<path d="M19.3,25h-6.5c-0.8,0-1.5-0.7-1.5-1.5s0.7-1.5,1.5-1.5h6.5c0.8,0,1.5,0.7,1.5,1.5S20.1,25,19.3,25z"/>
<path d="M24.3,15H7.8c-0.8,0-1.5-0.7-1.5-1.5S6.9,12,7.8,12h16.5c0.8,0,1.5,0.7,1.5,1.5S25.1,15,24.3,15z"/>
<path d="M24.3,20H7.8c-0.8,0-1.5-0.7-1.5-1.5S6.9,17,7.8,17h16.5c0.8,0,1.5,0.7,1.5,1.5S25.1,20,24.3,20z"/>
</svg>
