<svg xmlns="http://www.w3.org/2000/svg" viewBox="0 0 32 32"><path d="M27 .5H5C2.5.5.5 2.5.5 5v22c0 2.5 2 4.5 4.5 4.5h22c2.5 0 4.5-2 4.5-4.5V5c0-2.5-2-4.5-4.5-4.5zM28.5 27c0 .8-.7 1.5-1.5 1.5H5c-.8 0-1.5-.7-1.5-1.5V5c0-.8.7-1.5 1.5-1.5h22c.8 0 1.5.7 1.5 1.5v22z"/><path d="M14.3 10.4c-.6-.6-1.5-.6-2.1 0l-4.5 4.5c-.6.6-.6 1.5 0 2.1l4.5 4.5c.3.3.7.4 1.1.4s.8-.1 1.1-.4c.6-.6.6-1.5 0-2.1L10.9 16l3.4-3.4c.6-.6.6-1.6 0-2.2zM19.8 10.4c-.6-.6-1.5-.6-2.1 0-.6.6-.6 1.5 0 2.1l3.4 3.4-3.4 3.4a1.5 1.5 0 0 0 1.1 2.5c.4 0 .8-.1 1.1-.4l4.5-4.5c.6-.6.6-1.5 0-2.1l-4.6-4.4z"/></svg>