<?xml version="1.0" encoding="utf-8"?>
<!-- Generator: Adobe Illustrator 21.0.0, SVG Export Plug-In . SVG Version: 6.00 Build 0)  -->
<svg version="1.1" id="Layer_1" xmlns="http://www.w3.org/2000/svg" xmlns:xlink="http://www.w3.org/1999/xlink" x="0px" y="0px"
	 viewBox="0 0 32 32" style="enable-background:new 0 0 32 32;" xml:space="preserve">
<style type="text/css">
	.st0{fill:none;stroke:#000000;stroke-width:3;stroke-linecap:round;stroke-linejoin:round;stroke-miterlimit:10;}
</style>
<path class="st0" d="M16.5,7.5"/>
<g>
	<path d="M27,0.5H5c-2.5,0-4.5,2-4.5,4.5v22c0,2.5,2,4.5,4.5,4.5h22c2.5,0,4.5-2,4.5-4.5V5C31.5,2.5,29.5,0.5,27,0.5z M28.5,27
		c0,0.8-0.7,1.5-1.5,1.5H5c-0.8,0-1.5-0.7-1.5-1.5V5c0-0.8,0.7-1.5,1.5-1.5h22c0.8,0,1.5,0.7,1.5,1.5V27z"/>
	<path d="M14.3,10.4c-0.6-0.6-1.5-0.6-2.1,0l-4.5,4.5c-0.6,0.6-0.6,1.5,0,2.1l4.5,4.5c0.3,0.3,0.7,0.4,1.1,0.4s0.8-0.1,1.1-0.4
		c0.6-0.6,0.6-1.5,0-2.1L10.9,16l3.4-3.4C14.9,12,14.9,11,14.3,10.4z"/>
	<path d="M19.8,10.4c-0.6-0.6-1.5-0.6-2.1,0c-0.6,0.6-0.6,1.5,0,2.1l3.4,3.4l-3.4,3.4c-0.6,0.6-0.6,1.5,0,2.1
		c0.3,0.3,0.7,0.4,1.1,0.4s0.8-0.1,1.1-0.4l4.5-4.5c0.6-0.6,0.6-1.5,0-2.1L19.8,10.4z"/>
</g>
</svg>
