<?xml version="1.0" encoding="utf-8"?>
<!-- Generator: Adobe Illustrator 21.0.0, SVG Export Plug-In . SVG Version: 6.00 Build 0)  -->
<svg version="1.1" id="Layer_1" xmlns="http://www.w3.org/2000/svg" xmlns:xlink="http://www.w3.org/1999/xlink" x="0px" y="0px"
	 viewBox="0 0 32 32" style="enable-background:new 0 0 32 32;" xml:space="preserve">
<g>
	<path d="M26.5,8H20V6.5C20,4,18,2,15.5,2h-10C3,2,1,4,1,6.5v4v12v4C1,29,3,31,5.5,31h21c2.5,0,4.5-2,4.5-4.5v-14C31,10,29,8,26.5,8
		z M28,26.5c0,0.8-0.7,1.5-1.5,1.5h-21C4.7,28,4,27.3,4,26.5v-4v-12v-4C4,5.7,4.7,5,5.5,5h10C16.3,5,17,5.7,17,6.5V8H9.5
		C8.7,8,8,8.7,8,9.5S8.7,11,9.5,11h17c0.8,0,1.5,0.7,1.5,1.5V26.5z"/>
	<path d="M23.5,6h4C28.3,6,29,5.3,29,4.5S28.3,3,27.5,3h-4C22.7,3,22,3.7,22,4.5S22.7,6,23.5,6z"/>
</g>
</svg>
