<?xml version="1.0" encoding="utf-8"?>
<!-- Generator: Adobe Illustrator 21.0.0, SVG Export Plug-In . SVG Version: 6.00 Build 0)  -->
<svg version="1.1" id="Layer_1" xmlns="http://www.w3.org/2000/svg" xmlns:xlink="http://www.w3.org/1999/xlink" x="0px" y="0px"
	 viewBox="0 0 32 32" style="enable-background:new 0 0 32 32;" xml:space="preserve">
<path d="M19.3,0.5H7C5.1,0.5,3.5,2.1,3.5,4v24c0,1.9,1.6,3.5,3.5,3.5h18c1.9,0,3.5-1.6,3.5-3.5V10.5L19.3,0.5z M20,5.7l3.9,4.3H20
	V5.7z M25,28.5H7c-0.3,0-0.5-0.2-0.5-0.5V4c0-0.3,0.2-0.5,0.5-0.5h10V13h8.5v15C25.5,28.3,25.3,28.5,25,28.5z"/>
</svg>
