<?xml version="1.0" encoding="utf-8"?>
<!-- Generator: Adobe Illustrator 21.0.0, SVG Export Plug-In . SVG Version: 6.00 Build 0)  -->
<svg version="1.1" id="Layer_1" xmlns="http://www.w3.org/2000/svg" xmlns:xlink="http://www.w3.org/1999/xlink" x="0px" y="0px"
	 viewBox="0 0 32 32" style="enable-background:new 0 0 32 32;" xml:space="preserve">
<path d="M23.9,14.1c-0.6-0.7-0.9-1.7-0.9-2.6s0.3-1.9,0.9-2.6l2.8-3.4C27,5,27.1,4.4,26.9,3.9C26.6,3.3,26.1,3,25.5,3H8V2.5
	C8,1.7,7.3,1,6.5,1S5,1.7,5,2.5v27C5,30.3,5.7,31,6.5,31S8,30.3,8,29.5V20h17.5c0.6,0,1.1-0.3,1.4-0.9c0.3-0.5,0.2-1.1-0.2-1.6
	L23.9,14.1z M21.6,16l0.8,1H8V6h14.4l-0.8,1c-1,1.3-1.6,2.9-1.6,4.5S20.6,14.7,21.6,16z"/>
</svg>
