<?xml version="1.0" encoding="utf-8"?>
<!-- Generator: Adobe Illustrator 21.0.0, SVG Export Plug-In . SVG Version: 6.00 Build 0)  -->
<svg version="1.1" id="Layer_1" xmlns="http://www.w3.org/2000/svg" xmlns:xlink="http://www.w3.org/1999/xlink" x="0px" y="0px"
	 viewBox="0 0 32 32" style="enable-background:new 0 0 32 32;" xml:space="preserve">
<g>
	<path d="M14,0.6C7.1,1.5,1.5,7.1,0.6,14C-0.7,24.1,7.9,32.7,18,31.4c6.9-0.9,12.5-6.4,13.4-13.4C32.7,7.9,24.1-0.7,14,0.6z
		 M14.4,28.4C8.8,27.7,4.3,23.2,3.6,17.6c-1-8.2,5.9-15.1,14-14c5.6,0.7,10.1,5.2,10.8,10.8C29.4,22.5,22.5,29.4,14.4,28.4z"/>
	<path d="M16.5,6c-0.2,0-3.7,0-5.2,2.6c-0.4,0.7-0.4,1.7,0.3,2.1c0.8,0.6,1.8,0.3,2.2-0.5C14.3,9.2,16,9,16.5,9
		c1.1,0,2.1,0.6,2.4,1.3c0.3,0.9-0.8,2.1-1.3,2.5c-3.6,3.1-3,6.1-2.9,6.4c0.2,0.7,0.8,1.2,1.5,1.2c0.1,0,0.2,0,0.4,0
		c0.8-0.2,1.3-1,1.1-1.8c0-0.1-0.2-1.6,1.9-3.4c2.9-2.4,2.6-4.7,2.2-5.8C21,7.4,18.9,6,16.5,6z"/>
	<circle cx="16" cy="23" r="1.5"/>
</g>
</svg>
