<svg xmlns="http://www.w3.org/2000/svg" viewBox="0 0 32 32"><path d="M27 .5H5C2.5.5.5 2.5.5 5v22c0 2.5 2 4.5 4.5 4.5h22c2.5 0 4.5-2 4.5-4.5V5c0-2.5-2-4.5-4.5-4.5zM28.5 27c0 .8-.7 1.5-1.5 1.5H5c-.8 0-1.5-.7-1.5-1.5V5c0-.8.7-1.5 1.5-1.5h22c.8 0 1.5.7 1.5 1.5v22z"/><path d="M10.5 9C9.7 9 9 9.7 9 10.5v11c0 .8.7 1.5 1.5 1.5s1.5-.7 1.5-1.5v-11c0-.8-.7-1.5-1.5-1.5zM22.5 9h-6c-.8 0-1.5.7-1.5 1.5v11c0 .8.7 1.5 1.5 1.5s1.5-.7 1.5-1.5V19h4.5c.8 0 1.5-.7 1.5-1.5v-7c0-.8-.7-1.5-1.5-1.5zM21 16h-3v-4h3v4z"/></svg>