<?xml version="1.0" encoding="utf-8"?>
<!-- Generator: Adobe Illustrator 21.0.0, SVG Export Plug-In . SVG Version: 6.00 Build 0)  -->
<svg version="1.1" id="Layer_1" xmlns="http://www.w3.org/2000/svg" xmlns:xlink="http://www.w3.org/1999/xlink" x="0px" y="0px"
	 viewBox="0 0 32 32" style="enable-background:new 0 0 32 32;" xml:space="preserve">
<g>
	<path d="M27,0.5H5c-2.5,0-4.5,2-4.5,4.5v22c0,2.5,2,4.5,4.5,4.5h22c2.5,0,4.5-2,4.5-4.5V5C31.5,2.5,29.5,0.5,27,0.5z M28.5,27
		c0,0.8-0.7,1.5-1.5,1.5H5c-0.8,0-1.5-0.7-1.5-1.5V5c0-0.8,0.7-1.5,1.5-1.5h22c0.8,0,1.5,0.7,1.5,1.5V27z"/>
	<path d="M10.5,9C9.7,9,9,9.7,9,10.5v11c0,0.8,0.7,1.5,1.5,1.5s1.5-0.7,1.5-1.5v-11C12,9.7,11.3,9,10.5,9z"/>
	<path d="M22.5,9h-6C15.7,9,15,9.7,15,10.5v11c0,0.8,0.7,1.5,1.5,1.5c0.8,0,1.5-0.7,1.5-1.5V19h4.5c0.8,0,1.5-0.7,1.5-1.5v-7
		C24,9.7,23.3,9,22.5,9z M21,16h-3v-4h3V16z"/>
</g>
</svg>
