<?xml version="1.0" encoding="utf-8"?>
<!-- Generator: Adobe Illustrator 21.0.0, SVG Export Plug-In . SVG Version: 6.00 Build 0)  -->
<svg version="1.1" id="Layer_1" xmlns="http://www.w3.org/2000/svg" xmlns:xlink="http://www.w3.org/1999/xlink" x="0px" y="0px"
	 viewBox="0 0 32 32" style="enable-background:new 0 0 32 32;" xml:space="preserve">
<g>
	<path d="M21,6.6V6c0-2.8-2.2-5-5-5s-5,2.2-5,5v0.6C7.3,7.1,4.5,10.2,4.5,14v13c0,1.9,1.6,3.5,3.5,3.5h16c1.9,0,3.5-1.6,3.5-3.5V14
		C27.5,10.2,24.7,7.1,21,6.6z M16,4c1.1,0,2,0.9,2,2v0.5h-4V6C14,4.9,14.9,4,16,4z M24.5,27c0,0.3-0.2,0.5-0.5,0.5H8
		c-0.3,0-0.5-0.2-0.5-0.5V14c0-2.5,2-4.5,4.5-4.5h8c2.5,0,4.5,2,4.5,4.5V27z"/>
	<path d="M16,15c-2.2,0-4,1.8-4,4c0,2.2,1.8,4,4,4c2.2,0,4-1.8,4-4C20,16.8,18.2,15,16,15z M16,20c-0.6,0-1-0.4-1-1s0.4-1,1-1
		s1,0.4,1,1S16.6,20,16,20z"/>
</g>
</svg>
