<?xml version="1.0" encoding="utf-8"?>
<!-- Generator: Adobe Illustrator 21.0.0, SVG Export Plug-In . SVG Version: 6.00 Build 0)  -->
<svg version="1.1" id="Layer_1" xmlns="http://www.w3.org/2000/svg" xmlns:xlink="http://www.w3.org/1999/xlink" x="0px" y="0px"
	 viewBox="0 0 32 32" style="enable-background:new 0 0 32 32;" xml:space="preserve">
<path d="M29.5,4.9C29.5,4.9,29.5,4.9,29.5,4.9C29.5,4.9,29.5,4.9,29.5,4.9c-1.4-1.5-3.4-2.4-5.5-2.4H4c-0.9,0-1.7,0.3-2.3,0.9
	c0,0-0.1,0.1-0.1,0.1c0,0-0.1,0.1-0.1,0.1c0,0,0,0,0,0c0,0,0,0,0,0.1C0.9,4.3,0.5,5.1,0.5,6v16c0,4.1,3.4,7.5,7.5,7.5h20
	c1,0,1.9-0.5,2.6-1.2c0,0,0,0,0.1-0.1c0,0,0,0,0,0c0.5-0.6,0.8-1.4,0.8-2.2V10C31.5,8.1,30.7,6.3,29.5,4.9z M24,5.5
	c0.7,0,1.4,0.2,2,0.5l-9.6,8.5L6,5.5H24z M28.5,24.8l-7.1-5.4c-0.7-0.5-1.6-0.4-2.1,0.3c-0.5,0.7-0.4,1.6,0.3,2.1l6.3,4.8H8
	c-0.5,0-0.9-0.1-1.3-0.2l5.7-4.6c0.6-0.5,0.7-1.5,0.2-2.1c-0.5-0.6-1.5-0.7-2.1-0.2l-6.3,5.1c-0.5-0.7-0.7-1.5-0.7-2.4V7.3l12,10.3
	c0.3,0.2,0.6,0.4,1,0.4c0.4,0,0.7-0.1,1-0.4l10.6-9.4c0.2,0.6,0.4,1.2,0.4,1.8V24.8z"/>
</svg>
