<svg xmlns="http://www.w3.org/2000/svg" viewBox="0 0 32 32"><path d="M29.5 4.9A7.6 7.6 0 0 0 24 2.5H4c-.9 0-1.7.3-2.3.9l-.1.1-.1.1v.1C.9 4.3.5 5.1.5 6v16c0 4.1 3.4 7.5 7.5 7.5h20c1 0 1.9-.5 2.6-1.2l.1-.1c.5-.6.8-1.4.8-2.2V10a8 8 0 0 0-2-5.1zm-5.5.6c.7 0 1.4.2 2 .5l-9.6 8.5L6 5.5h18zm4.5 19.3l-7.1-5.4c-.7-.5-1.6-.4-2.1.3s-.4 1.6.3 2.1l6.3 4.8H8l-1.3-.2 5.7-4.6c.6-.5.7-1.5.2-2.1-.5-.6-1.5-.7-2.1-.2l-6.3 5.1a4 4 0 0 1-.7-2.4V7.3l12 10.3c.3.2.6.4 1 .4s.7-.1 1-.4l10.6-9.4c.2.6.4 1.2.4 1.8v14.8z"/></svg>