<?xml version="1.0" encoding="utf-8"?>
<!-- Generator: Adobe Illustrator 21.0.0, SVG Export Plug-In . SVG Version: 6.00 Build 0)  -->
<svg version="1.1" id="Layer_1" xmlns="http://www.w3.org/2000/svg" xmlns:xlink="http://www.w3.org/1999/xlink" x="0px" y="0px"
	 viewBox="0 0 32 32" style="enable-background:new 0 0 32 32;" xml:space="preserve">
<path d="M28,31.5H4c-1.9,0-3.5-1.6-3.5-3.5V4c0-1.9,1.6-3.5,3.5-3.5h24c1.9,0,3.5,1.6,3.5,3.5v24C31.5,29.9,29.9,31.5,28,31.5z
	 M4,3.5C3.7,3.5,3.5,3.7,3.5,4v24c0,0.3,0.2,0.5,0.5,0.5h24c0.3,0,0.5-0.2,0.5-0.5V4c0-0.3-0.2-0.5-0.5-0.5H4z"/>
<path d="M20.8,17.5h-9.5c-0.8,0-1.5-0.7-1.5-1.5s0.7-1.5,1.5-1.5h9.5c0.8,0,1.5,0.7,1.5,1.5S21.6,17.5,20.8,17.5z"/>
</svg>
