<svg id="Layer_1" xmlns="http://www.w3.org/2000/svg" viewBox="0 0 32 32"><style>.st0{fill:none}</style><path class="st0" d="M19 22c0 2.3-.9 4.4-2.3 6h9.8c.8 0 1.5-.7 1.5-1.5v-14c0-.8-.7-1.5-1.5-1.5h-17C8.7 11 8 10.3 8 9.5S8.7 8 9.5 8H17V6.5c0-.8-.7-1.5-1.5-1.5h-10C4.7 5 4 5.7 4 6.5v8.8A9 9 0 0 1 19 22z"/><circle class="st0" cx="10" cy="22" r="6"/><path d="M23.5 6h4c.8 0 1.5-.7 1.5-1.5S28.3 3 27.5 3h-4c-.8 0-1.5.7-1.5 1.5S22.7 6 23.5 6z"/><path d="M26.5 8H20V6.5C20 4 18 2 15.5 2h-10C3 2 1 4 1 6.5V22c0 5 4 9 9 9h16.5c2.5 0 4.5-2 4.5-4.5v-14C31 10 29 8 26.5 8zM4 22c0-3.3 2.7-6 6-6s6 2.7 6 6-2.7 6-6 6-6-2.7-6-6zm24 4.5c0 .8-.7 1.5-1.5 1.5h-9.8A9 9 0 0 0 4 15.3V6.5C4 5.7 4.7 5 5.5 5h10c.8 0 1.5.7 1.5 1.5V8H9.5C8.7 8 8 8.7 8 9.5S8.7 11 9.5 11h17c.8 0 1.5.7 1.5 1.5v14z"/><path d="M13 20.5h-1.5V19c0-.8-.7-1.5-1.5-1.5s-1.5.7-1.5 1.5v1.5H7c-.8 0-1.5.7-1.5 1.5s.7 1.5 1.5 1.5h1.5V25c0 .8.7 1.5 1.5 1.5s1.5-.7 1.5-1.5v-1.5H13c.8 0 1.5-.7 1.5-1.5s-.7-1.5-1.5-1.5z"/></svg>