<?xml version="1.0" encoding="utf-8"?>
<!-- Generator: Adobe Illustrator 21.0.0, SVG Export Plug-In . SVG Version: 6.00 Build 0)  -->
<svg version="1.1" id="Layer_1" xmlns="http://www.w3.org/2000/svg" xmlns:xlink="http://www.w3.org/1999/xlink" x="0px" y="0px"
	 viewBox="0 0 32 32" style="enable-background:new 0 0 32 32;" xml:space="preserve">
<style type="text/css">
	.st0{fill:none;}
</style>
<g>
	<path class="st0" d="M19,22c0,2.3-0.9,4.4-2.3,6h9.8c0.8,0,1.5-0.7,1.5-1.5v-14c0-0.8-0.7-1.5-1.5-1.5h-17C8.7,11,8,10.3,8,9.5
		S8.7,8,9.5,8H17V6.5C17,5.7,16.3,5,15.5,5h-10C4.7,5,4,5.7,4,6.5v4v4.8c1.6-1.4,3.7-2.3,6-2.3C15,13,19,17,19,22z"/>
	<circle class="st0" cx="10" cy="22" r="6"/>
	<path d="M23.5,6h4C28.3,6,29,5.3,29,4.5S28.3,3,27.5,3h-4C22.7,3,22,3.7,22,4.5S22.7,6,23.5,6z"/>
	<path d="M26.5,8H20V6.5C20,4,18,2,15.5,2h-10C3,2,1,4,1,6.5v4V22c0,5,4,9,9,9h16.5c2.5,0,4.5-2,4.5-4.5v-14C31,10,29,8,26.5,8z
		 M4,22c0-3.3,2.7-6,6-6s6,2.7,6,6s-2.7,6-6,6S4,25.3,4,22z M28,26.5c0,0.8-0.7,1.5-1.5,1.5h-9.8c1.4-1.6,2.3-3.7,2.3-6c0-5-4-9-9-9
		c-2.3,0-4.4,0.9-6,2.3v-4.8v-4C4,5.7,4.7,5,5.5,5h10C16.3,5,17,5.7,17,6.5V8H9.5C8.7,8,8,8.7,8,9.5S8.7,11,9.5,11h17
		c0.8,0,1.5,0.7,1.5,1.5V26.5z"/>
</g>
<path d="M13,20.5h-1.5V19c0-0.8-0.7-1.5-1.5-1.5S8.5,18.2,8.5,19v1.5H7c-0.8,0-1.5,0.7-1.5,1.5s0.7,1.5,1.5,1.5h1.5V25
	c0,0.8,0.7,1.5,1.5,1.5s1.5-0.7,1.5-1.5v-1.5H13c0.8,0,1.5-0.7,1.5-1.5S13.8,20.5,13,20.5z"/>
</svg>
