<?xml version="1.0" encoding="utf-8"?>
<!-- Generator: Adobe Illustrator 21.0.0, SVG Export Plug-In . SVG Version: 6.00 Build 0)  -->
<svg version="1.1" id="Layer_1" xmlns="http://www.w3.org/2000/svg" xmlns:xlink="http://www.w3.org/1999/xlink" x="0px" y="0px"
	 viewBox="0 0 32 32" style="enable-background:new 0 0 32 32;" xml:space="preserve">
<style type="text/css">
	.st0{fill:none;stroke:#000000;stroke-width:3;stroke-linecap:round;stroke-linejoin:round;stroke-miterlimit:10;}
</style>
<path class="st0" d="M16.5,7.5"/>
<path d="M31,17.5c0-2.5-1.7-4.6-4-5.3V9.5C27,7,25,5,22.5,5h-2.7c-0.7-2.3-2.8-4-5.3-4C12,1,9.9,2.7,9.2,5H5.5C3,5,1,7,1,9.5v4
	C1,14.3,1.7,15,2.5,15C3.9,15,5,16.1,5,17.5C5,18.9,3.9,20,2.5,20C1.7,20,1,20.7,1,21.5v5C1,29,3,31,5.5,31h5c0.8,0,1.5-0.7,1.5-1.5
	c0-1.4,1.1-2.5,2.5-2.5s2.5,1.1,2.5,2.5c0,0.8,0.7,1.5,1.5,1.5h4c2.5,0,4.5-2,4.5-4.5v-3.7C29.3,22.1,31,20,31,17.5z M25.5,20
	c-0.8,0-1.5,0.7-1.5,1.5v5c0,0.8-0.7,1.5-1.5,1.5h-2.7c0,0,0,0,0,0c-0.1-0.2-0.2-0.5-0.3-0.7c0,0,0-0.1-0.1-0.1
	c-0.1-0.2-0.2-0.5-0.4-0.7c0,0,0,0,0,0c-0.1-0.2-0.3-0.4-0.5-0.6c0,0-0.1-0.1-0.1-0.1c-0.2-0.2-0.4-0.4-0.6-0.5c0,0-0.1-0.1-0.1-0.1
	c-0.2-0.2-0.4-0.3-0.7-0.4c0,0,0,0,0,0c-0.2-0.1-0.5-0.2-0.7-0.3c0,0-0.1,0-0.1-0.1c-0.2-0.1-0.5-0.1-0.8-0.2c-0.1,0-0.1,0-0.2,0
	c-0.3,0-0.5-0.1-0.8-0.1c-0.3,0-0.6,0-0.8,0.1c-0.1,0-0.1,0-0.2,0c-0.3,0-0.5,0.1-0.8,0.2c0,0-0.1,0-0.1,0.1
	c-0.2,0.1-0.5,0.2-0.7,0.3c0,0,0,0,0,0c-0.2,0.1-0.4,0.3-0.7,0.4c0,0-0.1,0.1-0.1,0.1c-0.2,0.2-0.4,0.3-0.6,0.5c0,0-0.1,0.1-0.1,0.1
	c-0.2,0.2-0.3,0.4-0.5,0.6c0,0,0,0,0,0c-0.1,0.2-0.3,0.4-0.4,0.7c0,0,0,0.1-0.1,0.1c-0.1,0.2-0.2,0.5-0.3,0.7c0,0,0,0,0,0H5.5
	C4.7,28,4,27.3,4,26.5v-3.7c0,0,0,0,0,0c0.2-0.1,0.5-0.2,0.7-0.3c0,0,0.1,0,0.1-0.1c0.2-0.1,0.5-0.2,0.7-0.4c0,0,0,0,0,0
	c0.2-0.1,0.4-0.3,0.6-0.5c0,0,0.1-0.1,0.1-0.1c0.2-0.2,0.3-0.4,0.5-0.6c0,0,0.1-0.1,0.1-0.1c0.2-0.2,0.3-0.4,0.4-0.7c0,0,0,0,0,0
	c0.1-0.2,0.2-0.5,0.3-0.7c0,0,0-0.1,0.1-0.1c0.1-0.2,0.1-0.5,0.2-0.8c0-0.1,0-0.1,0-0.2C8,18.1,8,17.8,8,17.5s0-0.6-0.1-0.8
	c0-0.1,0-0.1,0-0.2c0-0.3-0.1-0.5-0.2-0.8c0,0,0-0.1-0.1-0.1c-0.1-0.2-0.2-0.5-0.3-0.7c0,0,0,0,0,0c-0.1-0.2-0.3-0.4-0.4-0.7
	c0,0-0.1-0.1-0.1-0.1c-0.2-0.2-0.3-0.4-0.5-0.6c0,0-0.1-0.1-0.1-0.1C6,13.3,5.8,13.1,5.6,13c0,0,0,0,0,0c-0.2-0.1-0.4-0.3-0.7-0.4
	c0,0-0.1,0-0.1-0.1c-0.2-0.1-0.5-0.2-0.7-0.3c0,0,0,0,0,0V9.5C4,8.7,4.7,8,5.5,8h5C11.3,8,12,7.3,12,6.5C12,5.1,13.1,4,14.5,4
	S17,5.1,17,6.5C17,7.3,17.7,8,18.5,8h4C23.3,8,24,8.7,24,9.5v4c0,0.8,0.7,1.5,1.5,1.5c1.4,0,2.5,1.1,2.5,2.5
	C28,18.9,26.9,20,25.5,20z"/>
</svg>
