<svg xmlns="http://www.w3.org/2000/svg" viewBox="0 0 32 32"><path d="M16.4 31a15.3 15.3 0 0 1-10.6-4.4A14.4 14.4 0 0 1 2.7 22 14.7 14.7 0 0 1 5.8 5.4 15 15 0 0 1 26 4.5c.6.5.7 1.5.2 2.1-.5.6-1.5.7-2.1.2a12 12 0 1 0 .7 17.7c.8-.8 1.6-1.8 2.1-2.9.4-.7 1.3-1 2-.6s1 1.3.6 2a14.5 14.5 0 0 1-13.1 8z"/><path d="M27.3 9.2H21c-.8 0-1.5-.7-1.5-1.5s.7-1.5 1.5-1.5h6.2c.8 0 1.5.7 1.5 1.5s-.6 1.5-1.4 1.5z"/><path d="M27.3 9.2c-.8 0-1.5-.7-1.5-1.5V2.5c0-.8.7-1.5 1.5-1.5s1.5.7 1.5 1.5v5.2c0 .8-.7 1.5-1.5 1.5z"/></svg>