<?xml version="1.0" encoding="utf-8"?>
<!-- Generator: Adobe Illustrator 21.0.0, SVG Export Plug-In . SVG Version: 6.00 Build 0)  -->
<svg version="1.1" id="Layer_1" xmlns="http://www.w3.org/2000/svg" xmlns:xlink="http://www.w3.org/1999/xlink" x="0px" y="0px"
	 viewBox="0 0 32 32" style="enable-background:new 0 0 32 32;" xml:space="preserve">
<style type="text/css">
	.st0{fill:none;stroke:#000000;stroke-width:3;stroke-linecap:round;stroke-linejoin:round;stroke-miterlimit:10;}
</style>
<g>
	<path class="st0" d="M29.5,19.1"/>
	<path d="M16.4,31c-2.4,0-4.8-0.6-7.1-1.8c-1.3-0.7-2.5-1.6-3.5-2.6c-1.3-1.3-2.4-2.9-3.1-4.6C0.1,16.3,1.4,9.8,5.8,5.4
		C11.3-0.1,20-0.5,26,4.5C26.6,5,26.7,6,26.2,6.6c-0.5,0.6-1.5,0.7-2.1,0.2c-4.8-4-11.7-3.7-16.2,0.7C4.4,11,3.4,16.3,5.4,20.8
		c0.6,1.4,1.4,2.6,2.5,3.7c0.8,0.8,1.8,1.5,2.8,2.1c4.6,2.5,10.4,1.6,14.1-2.1c0.8-0.8,1.6-1.8,2.1-2.9c0.4-0.7,1.3-1,2-0.6
		c0.7,0.4,1,1.3,0.6,2c-0.7,1.3-1.6,2.5-2.6,3.6C24.1,29.5,20.3,31,16.4,31z"/>
	<g>
		<path d="M27.3,9.2H21c-0.8,0-1.5-0.7-1.5-1.5s0.7-1.5,1.5-1.5h6.2c0.8,0,1.5,0.7,1.5,1.5S28.1,9.2,27.3,9.2z"/>
		<path d="M27.3,9.2c-0.8,0-1.5-0.7-1.5-1.5V2.5c0-0.8,0.7-1.5,1.5-1.5s1.5,0.7,1.5,1.5v5.2C28.8,8.5,28.1,9.2,27.3,9.2z"/>
	</g>
</g>
</svg>
