<svg xmlns="http://www.w3.org/2000/svg" viewBox="0 0 32 32"><path d="M27 5C24 2.1 20.1.5 16 .5 12.3.5 8.8 1.8 6 4.2V2.7c0-.8-.7-1.5-1.5-1.5S3 1.9 3 2.7v5c0 .8.7 1.5 1.5 1.5h5c.8 0 1.5-.7 1.5-1.5s-.7-1.5-1.5-1.5H8.3c2.2-1.7 4.9-2.7 7.7-2.7 3.3 0 6.5 1.3 8.8 3.7 2.4 2.4 3.7 5.5 3.7 8.8 0 .8.7 1.5 1.5 1.5s1.5-.7 1.5-1.5c0-4.1-1.6-8-4.5-11zM27.2 23.1h-5c-.8 0-1.5.7-1.5 1.5s.7 1.5 1.5 1.5h1.1a12.7 12.7 0 0 1-7.3 2.4c-3.3 0-6.5-1.3-8.8-3.7S3.5 19.3 3.5 16c0-.8-.7-1.5-1.5-1.5S.5 15.2.5 16A15.4 15.4 0 0 0 16 31.5c3.6 0 7-1.2 9.7-3.4v1.5c0 .8.7 1.5 1.5 1.5s1.5-.7 1.5-1.5v-5c0-.8-.7-1.5-1.5-1.5z"/></svg>