<?xml version="1.0" encoding="utf-8"?>
<!-- Generator: Adobe Illustrator 21.0.0, SVG Export Plug-In . SVG Version: 6.00 Build 0)  -->
<svg version="1.1" id="Layer_1" xmlns="http://www.w3.org/2000/svg" xmlns:xlink="http://www.w3.org/1999/xlink" x="0px" y="0px"
	 viewBox="0 0 32 32" style="enable-background:new 0 0 32 32;" xml:space="preserve">
<g>
	<path d="M27,5C24,2.1,20.1,0.5,16,0.5c-3.7,0-7.2,1.3-10,3.7V2.7c0-0.8-0.7-1.5-1.5-1.5S3,1.9,3,2.7v5c0,0.8,0.7,1.5,1.5,1.5h5
		c0.8,0,1.5-0.7,1.5-1.5s-0.7-1.5-1.5-1.5H8.3c2.2-1.7,4.9-2.7,7.7-2.7c3.3,0,6.5,1.3,8.8,3.7c2.4,2.4,3.7,5.5,3.7,8.8
		c0,0.8,0.7,1.5,1.5,1.5s1.5-0.7,1.5-1.5C31.5,11.9,29.9,8,27,5z"/>
	<path d="M27.2,23.1h-5c-0.8,0-1.5,0.7-1.5,1.5s0.7,1.5,1.5,1.5h1.1c-2.1,1.5-4.7,2.4-7.3,2.4c-3.3,0-6.5-1.3-8.8-3.7
		S3.5,19.3,3.5,16c0-0.8-0.7-1.5-1.5-1.5S0.5,15.2,0.5,16c0,4.1,1.6,8,4.5,11c2.9,2.9,6.8,4.5,11,4.5c3.6,0,7-1.2,9.7-3.4v1.5
		c0,0.8,0.7,1.5,1.5,1.5s1.5-0.7,1.5-1.5v-5C28.7,23.8,28,23.1,27.2,23.1z"/>
</g>
</svg>
