<svg id="Layer_1" xmlns="http://www.w3.org/2000/svg" viewBox="0 0 32 32"><style>.st0{fill-rule:evenodd;clip-rule:evenodd}</style><path class="st0" d="M26.5 17h-21C3 17 1 19 1 21.5v5C1 29 3 31 5.5 31h21c2.5 0 4.5-2 4.5-4.5v-5c0-2.5-2-4.5-4.5-4.5zm1.5 9.5c0 .8-.7 1.5-1.5 1.5h-21c-.8 0-1.5-.7-1.5-1.5v-5c0-.8.7-1.5 1.5-1.5h21c.8 0 1.5.7 1.5 1.5v5z"/><circle class="st0" cx="9" cy="24" r="2"/><circle class="st0" cx="23" cy="24" r="2"/><circle cx="16" cy="24" r="2"/><path class="st0" d="M26.5 1h-21C3 1 1 3 1 5.5v5C1 13 3 15 5.5 15h21c2.5 0 4.5-2 4.5-4.5v-5C31 3 29 1 26.5 1zm1.5 9.5c0 .8-.7 1.5-1.5 1.5h-21c-.8 0-1.5-.7-1.5-1.5v-5C4 4.7 4.7 4 5.5 4h21c.8 0 1.5.7 1.5 1.5v5z"/><circle class="st0" cx="9" cy="8" r="2"/><circle class="st0" cx="23" cy="8" r="2"/><circle cx="16" cy="8" r="2"/></svg>