<svg xmlns="http://www.w3.org/2000/svg" viewBox="0 0 32 32"><path d="M16 10.5c-3 0-5.5 2.5-5.5 5.5s2.5 5.5 5.5 5.5 5.5-2.5 5.5-5.5-2.5-5.5-5.5-5.5zm0 8a2.5 2.5 0 0 1-2.5-2.5c0-1.4 1.1-2.5 2.5-2.5s2.5 1.1 2.5 2.5-1.1 2.5-2.5 2.5z"/><path d="M28.7 11.7c-.4-.1-.7-.4-.8-.8s-.2-.8 0-1.1c.8-1.7.4-3.7-.9-5a4.4 4.4 0 0 0-5-.8c-.4.2-.8.2-1.1 0a1 1 0 0 1-.8-.8A4.4 4.4 0 0 0 15.9.3a4.3 4.3 0 0 0-4.1 3 1 1 0 0 1-.8.8c-.4.2-.8.2-1.1 0a4.6 4.6 0 0 0-5.1.9 4.4 4.4 0 0 0-.8 5c.2.4.2.8 0 1.1a1 1 0 0 1-.8.8 4.4 4.4 0 0 0-2.9 4.2c0 1.9 1.2 3.5 3 4.1.4.1.7.4.8.8.2.4.2.8 0 1.1-.8 1.7-.4 3.7.9 5a4.4 4.4 0 0 0 5 .8c.4-.2.8-.2 1.1 0 .4.2.7.4.8.8a4.3 4.3 0 0 0 4.1 2.9h.1c1.9 0 3.5-1.2 4.1-3 .1-.4.4-.7.8-.8.4-.2.8-.2 1.1 0 1.7.8 3.7.4 5-.9a4.4 4.4 0 0 0 .8-5c-.2-.4-.2-.8 0-1.1.1-.4.4-.7.8-.8 1.8-.7 2.9-2.3 2.9-4.2s-1.1-3.5-2.9-4.1zm-1 5.5a4.3 4.3 0 0 0-2.6 2.5c-.5 1.2-.4 2.5.1 3.6.4.8-.1 1.4-.3 1.6-.2.2-.8.7-1.6.3a5 5 0 0 0-3.6-.1c-1.1.5-2 1.4-2.4 2.6-.3.9-1.1.9-1.3.9-.2 0-1-.1-1.3-.9a4.3 4.3 0 0 0-4.1-2.9c-.7 0-1.3.2-1.9.4-.8.4-1.4-.1-1.6-.3-.2-.2-.7-.8-.3-1.6a5 5 0 0 0 .1-3.6c-.5-1.1-1.4-2-2.6-2.4-.9-.3-.9-1.1-.9-1.3s.1-1 .9-1.3a4.3 4.3 0 0 0 2.6-2.5c.5-1.2.4-2.5-.1-3.6-.5-.7 0-1.3.1-1.5.2-.1.8-.6 1.6-.2a5 5 0 0 0 3.6.1c1.1-.5 2-1.4 2.4-2.6.3-.9 1.1-.9 1.3-.9.2 0 1 .1 1.3.9A4.3 4.3 0 0 0 19.6 7c1.2.5 2.5.4 3.6-.1.8-.4 1.4.1 1.6.3.2.2.7.8.3 1.6a5 5 0 0 0-.1 3.6c.5 1.1 1.4 2 2.6 2.4.9.3.9 1.1.9 1.3.2 0 .1.8-.8 1.1z"/></svg>