<?xml version="1.0" encoding="utf-8"?>
<!-- Generator: Adobe Illustrator 21.0.0, SVG Export Plug-In . SVG Version: 6.00 Build 0)  -->
<svg version="1.1" id="Layer_1" xmlns="http://www.w3.org/2000/svg" xmlns:xlink="http://www.w3.org/1999/xlink" x="0px" y="0px"
	 viewBox="0 0 32 32" style="enable-background:new 0 0 32 32;" xml:space="preserve">
<g>
	<path d="M16,10.5c-3,0-5.5,2.5-5.5,5.5c0,3,2.5,5.5,5.5,5.5c3,0,5.5-2.5,5.5-5.5C21.5,13,19,10.5,16,10.5z M16,18.5
		c-1.4,0-2.5-1.1-2.5-2.5c0-1.4,1.1-2.5,2.5-2.5c1.4,0,2.5,1.1,2.5,2.5C18.5,17.4,17.4,18.5,16,18.5z"/>
	<path d="M28.7,11.7c-0.4-0.1-0.7-0.4-0.8-0.8s-0.2-0.8,0-1.1c0.8-1.7,0.4-3.7-0.9-5c-1.4-1.3-3.3-1.6-5-0.8c-0.4,0.2-0.8,0.2-1.1,0
		c-0.4-0.1-0.7-0.4-0.8-0.8c-0.7-1.8-2.3-2.9-4.2-2.9c-1.9,0-3.5,1.2-4.1,3c-0.1,0.4-0.4,0.7-0.8,0.8c-0.4,0.2-0.8,0.2-1.1,0
		C8.1,3.3,6.1,3.7,4.8,5c-1.3,1.4-1.6,3.3-0.8,5c0.2,0.4,0.2,0.8,0,1.1c-0.1,0.4-0.4,0.7-0.8,0.8c-1.8,0.7-2.9,2.3-2.9,4.2
		c0,1.9,1.2,3.5,3,4.1c0.4,0.1,0.7,0.4,0.8,0.8c0.2,0.4,0.2,0.8,0,1.1c-0.8,1.7-0.4,3.7,0.9,5c1.4,1.3,3.3,1.6,5,0.8
		c0.4-0.2,0.8-0.2,1.1,0c0.4,0.2,0.7,0.4,0.8,0.8c0.6,1.8,2.3,2.9,4.1,2.9c0,0,0,0,0.1,0c1.9,0,3.5-1.2,4.1-3
		c0.1-0.4,0.4-0.7,0.8-0.8c0.4-0.2,0.8-0.2,1.1,0c1.7,0.8,3.7,0.4,5-0.9c1.3-1.4,1.6-3.3,0.8-5c-0.2-0.4-0.2-0.8,0-1.1
		c0.1-0.4,0.4-0.7,0.8-0.8c1.8-0.7,2.9-2.3,2.9-4.2S30.5,12.3,28.7,11.7z M27.7,17.2c-1.2,0.4-2.1,1.3-2.6,2.5
		c-0.5,1.2-0.4,2.5,0.1,3.6c0.4,0.8-0.1,1.4-0.3,1.6c-0.2,0.2-0.8,0.7-1.6,0.3c-1.1-0.5-2.4-0.5-3.6-0.1c-1.1,0.5-2,1.4-2.4,2.6
		c-0.3,0.9-1.1,0.9-1.3,0.9c-0.2,0-1-0.1-1.3-0.9c-0.4-1.2-1.3-2.1-2.5-2.6c-0.5-0.2-1.1-0.3-1.6-0.3c-0.7,0-1.3,0.2-1.9,0.4
		c-0.8,0.4-1.4-0.1-1.6-0.3c-0.2-0.2-0.7-0.8-0.3-1.6c0.5-1.1,0.5-2.4,0.1-3.6c-0.5-1.1-1.4-2-2.6-2.4c-0.9-0.3-0.9-1.1-0.9-1.3
		s0.1-1,0.9-1.3c1.2-0.4,2.1-1.3,2.6-2.5c0.5-1.2,0.4-2.5-0.1-3.6C6.3,7.9,6.8,7.3,6.9,7.1C7.1,7,7.7,6.5,8.5,6.9
		c1.1,0.5,2.4,0.5,3.6,0.1c1.1-0.5,2-1.4,2.4-2.6c0.3-0.9,1.1-0.9,1.3-0.9c0.2,0,1,0.1,1.3,0.9v0c0.4,1.2,1.3,2.1,2.5,2.6
		c1.2,0.5,2.5,0.4,3.6-0.1c0.8-0.4,1.4,0.1,1.6,0.3c0.2,0.2,0.7,0.8,0.3,1.6c-0.5,1.1-0.5,2.4-0.1,3.6c0.5,1.1,1.4,2,2.6,2.4
		c0.9,0.3,0.9,1.1,0.9,1.3C28.7,16.1,28.6,16.9,27.7,17.2z"/>
</g>
</svg>
