<?xml version="1.0" encoding="utf-8"?>
<!-- Generator: Adobe Illustrator 21.0.0, SVG Export Plug-In . SVG Version: 6.00 Build 0)  -->
<svg version="1.1" id="Layer_1" xmlns="http://www.w3.org/2000/svg" xmlns:xlink="http://www.w3.org/1999/xlink" x="0px" y="0px"
	 viewBox="0 0 32 32" style="enable-background:new 0 0 32 32;" xml:space="preserve">
<path d="M16,1C7.7,1,1,7.7,1,16c0,8.3,6.7,15,15,15c8.3,0,15-6.7,15-15C31,7.7,24.3,1,16,1z M16,4c2.8,0,5.3,1,7.3,2.5l-2.9,2.9
	C19.2,8.5,17.7,8,16,8s-3.2,0.5-4.5,1.4L8.7,6.5C10.7,5,13.2,4,16,4z M21,16c0,2.8-2.2,5-5,5s-5-2.2-5-5s2.2-5,5-5S21,13.2,21,16z
	 M4,16c0-2.8,1-5.3,2.5-7.3l2.9,2.9C8.5,12.8,8,14.3,8,16s0.5,3.2,1.4,4.5l-2.9,2.9C5,21.3,4,18.8,4,16z M16,28
	c-2.8,0-5.3-1-7.3-2.5l2.9-2.9c1.3,0.9,2.8,1.4,4.5,1.4s3.2-0.5,4.5-1.4l2.9,2.9C21.3,27,18.8,28,16,28z M25.5,23.3l-2.9-2.9
	c0.9-1.3,1.4-2.8,1.4-4.5s-0.5-3.2-1.4-4.5l2.9-2.9c1.6,2,2.5,4.6,2.5,7.3C28,18.8,27,21.3,25.5,23.3z"/>
</svg>
