<svg xmlns="http://www.w3.org/2000/svg" viewBox="0 0 32 32"><path d="M16 1a15 15 0 1 0 0 30 15 15 0 0 0 0-30zm0 3c2.8 0 5.3 1 7.3 2.5l-2.9 2.9a7.7 7.7 0 0 0-8.9 0L8.7 6.5C10.7 5 13.2 4 16 4zm5 12c0 2.8-2.2 5-5 5s-5-2.2-5-5 2.2-5 5-5 5 2.2 5 5zM4 16c0-2.8 1-5.3 2.5-7.3l2.9 2.9a7.7 7.7 0 0 0 0 8.9l-2.9 2.9A12.7 12.7 0 0 1 4 16zm12 12c-2.8 0-5.3-1-7.3-2.5l2.9-2.9c1.3.9 2.8 1.4 4.5 1.4s3.2-.5 4.5-1.4l2.9 2.9A13.2 13.2 0 0 1 16 28zm9.5-4.7l-2.9-2.9c.9-1.3 1.4-2.8 1.4-4.5s-.5-3.2-1.4-4.5l2.9-2.9a12.3 12.3 0 0 1 0 14.8z"/></svg>