<?xml version="1.0" encoding="utf-8"?>
<!-- Generator: Adobe Illustrator 21.0.0, SVG Export Plug-In . SVG Version: 6.00 Build 0)  -->
<svg version="1.1" id="Layer_1" xmlns="http://www.w3.org/2000/svg" xmlns:xlink="http://www.w3.org/1999/xlink" x="0px" y="0px"
	 viewBox="0 0 32 32" style="enable-background:new 0 0 32 32;" xml:space="preserve">
<path d="M16,31.5c-8.5,0-15.5-7-15.5-15.5S7.5,0.5,16,0.5s15.5,7,15.5,15.5S24.5,31.5,16,31.5z M16,3.5C9.1,3.5,3.5,9.1,3.5,16
	S9.1,28.5,16,28.5S28.5,22.9,28.5,16S22.9,3.5,16,3.5z"/>
<path d="M16,17c-0.8,0-1.5-0.7-1.5-1.5v-8C14.5,6.7,15.2,6,16,6s1.5,0.7,1.5,1.5v8C17.5,16.3,16.8,17,16,17z"/>
<path d="M23,17.5h-7c-0.8,0-1.5-0.7-1.5-1.5s0.7-1.5,1.5-1.5h7c0.8,0,1.5,0.7,1.5,1.5S23.8,17.5,23,17.5z"/>
</svg>
