<?xml version="1.0" encoding="utf-8"?>
<!-- Generator: Adobe Illustrator 21.0.0, SVG Export Plug-In . SVG Version: 6.00 Build 0)  -->
<svg version="1.1" id="Layer_1" xmlns="http://www.w3.org/2000/svg" xmlns:xlink="http://www.w3.org/1999/xlink" x="0px" y="0px"
	 viewBox="0 0 32 32" style="enable-background:new 0 0 32 32;" xml:space="preserve">
<g>
	<path d="M12.1,9.6l2.4-2.4v14.4c0,0.8,0.7,1.5,1.5,1.5s1.5-0.7,1.5-1.5V7.1l2.4,2.4c0.6,0.6,1.5,0.6,2.1,0c0.6-0.6,0.6-1.5,0-2.1
		l-5-5c-0.1-0.1-0.3-0.3-0.5-0.3c0,0,0,0,0,0C16.4,2,16.2,2,16,2s-0.4,0-0.5,0.1c0,0,0,0,0,0c-0.2,0.1-0.4,0.2-0.5,0.3l-5,5
		C9.4,8,9.4,9,9.9,9.6C10.5,10.1,11.5,10.1,12.1,9.6z"/>
	<path d="M30,22.5c-0.8,0-1.5,0.7-1.5,1.5c0,1.9-1.6,3.5-3.5,3.5H7c-1.9,0-3.5-1.6-3.5-3.5c0-0.8-0.7-1.5-1.5-1.5S0.5,23.2,0.5,24
		c0,3.6,2.9,6.5,6.5,6.5h18c3.6,0,6.5-2.9,6.5-6.5C31.5,23.2,30.8,22.5,30,22.5z"/>
</g>
</svg>
