<?xml version="1.0" encoding="utf-8"?>
<!-- Generator: Adobe Illustrator 21.0.0, SVG Export Plug-In . SVG Version: 6.00 Build 0)  -->
<svg version="1.1" id="Layer_1" xmlns="http://www.w3.org/2000/svg" xmlns:xlink="http://www.w3.org/1999/xlink" x="0px" y="0px"
	 viewBox="0 0 32 32" style="enable-background:new 0 0 32 32;" xml:space="preserve">
<path d="M16.5,19C11.8,19,8,15.2,8,10.5S11.8,2,16.5,2c4.7,0,8.5,3.8,8.5,8.5S21.2,19,16.5,19z M16.5,5c-3,0-5.5,2.5-5.5,5.5
	s2.5,5.5,5.5,5.5c3,0,5.5-2.5,5.5-5.5S19.5,5,16.5,5z"/>
<path d="M25,30c-0.8,0-1.5-0.7-1.5-1.5S24.2,27,25,27c1.1,0,2-0.8,2-1.8c0-0.9-0.9-1.7-1.9-1.7l-5.8,0.6c-2.2,0.2-4.3,0.2-6.5,0
	l-5.8-0.6c-1.1,0-1.9,0.8-1.9,1.7C5,26.2,5.9,27,7,27c0.8,0,1.5,0.7,1.5,1.5S7.8,30,7,30c-2.8,0-5-2.1-5-4.8s2.2-4.8,5-4.8
	c0.1,0,0.1,0,0.2,0l5.9,0.6c2,0.2,3.9,0.2,5.9,0l5.9-0.6c0.1,0,0.1,0,0.2,0c2.8,0,5,2.1,5,4.8S27.8,30,25,30z"/>
</svg>
