<svg xmlns="http://www.w3.org/2000/svg" width="32" height="32"><rect width="100%" height="100%" fill="none"/><g class="currentLayer"><g fill="#fff"><path d="M27 .5H11C8.5.5 6.5 2.5 6.5 5v.5H5C2.5 5.5.5 7.3.5 9.5v18.1c0 2.2 2 4 4.5 4h22c2.5 0 4.5-2 4.5-4.5V5c0-2.5-2-4.5-4.5-4.5zM28.5 27c0 .8-.7 1.5-1.5 1.5H5c-.9 0-1.5-.5-1.5-1v-18c0-.5.6-1 1.5-1h1.5V23c0 .8.7 1.5 1.5 1.5s1.5-.7 1.5-1.5V5c0-.8.7-1.5 1.5-1.5h16c.8 0 1.5.7 1.5 1.5v22z"/><path d="M14.5 14h3c1.4 0 2.5-1.1 2.5-2.5V8c0-1.4-1.1-2.5-2.5-2.5h-3A2.5 2.5 0 0 0 12 8v3.5c0 1.4 1.1 2.5 2.5 2.5zm.5-5.5h2V11h-2V8.5zM25.5 6H23c-.8 0-1.5.7-1.5 1.5S22.2 9 23 9h2.5c.8 0 1.5-.7 1.5-1.5S26.3 6 25.5 6zM25.5 11H23c-.8 0-1.5.7-1.5 1.5S22.2 14 23 14h2.5c.8 0 1.5-.7 1.5-1.5s-.7-1.5-1.5-1.5zM25.5 17h-12c-.8 0-1.5.7-1.5 1.5s.7 1.5 1.5 1.5h12c.8 0 1.5-.7 1.5-1.5s-.7-1.5-1.5-1.5zM25.5 22h-12c-.8 0-1.5.7-1.5 1.5s.7 1.5 1.5 1.5h12c.8 0 1.5-.7 1.5-1.5s-.7-1.5-1.5-1.5z"/></g></g></svg>