<svg xmlns="http://www.w3.org/2000/svg" xmlns:xlink="http://www.w3.org/1999/xlink" version="1.1" style="" xml:space="preserve" width="32" height="32"><rect id="backgroundrect" width="100%" height="100%" x="0" y="0" fill="none" stroke="none"/>

<g class="currentLayer" style=""><title>Layer 1</title><g id="svg_1" class="" fill="#ffffff" fill-opacity="1">
	<path d="M27,0.5H11c-2.5,0-4.5,2-4.5,4.5v0.5H5c-2.5,0-4.5,1.8-4.5,4v18.1c0,2.2,2,4,4.5,4h6h10h6c2.5,0,4.5-2,4.5-4.5V5   C31.5,2.5,29.5,0.5,27,0.5z M28.5,27c0,0.8-0.7,1.5-1.5,1.5h-6H11H5c-0.9,0-1.5-0.5-1.5-1V9.5c0-0.5,0.6-1,1.5-1h1.5V23   c0,0.8,0.7,1.5,1.5,1.5s1.5-0.7,1.5-1.5V5c0-0.8,0.7-1.5,1.5-1.5h16c0.8,0,1.5,0.7,1.5,1.5V27z" id="svg_2" fill="#ffffff" fill-opacity="1"/>
	<path d="M14.5,14h3c1.4,0,2.5-1.1,2.5-2.5V8c0-1.4-1.1-2.5-2.5-2.5h-3C13.1,5.5,12,6.6,12,8v3.5C12,12.9,13.1,14,14.5,14z M15,8.5   h2V11h-2V8.5z" id="svg_3" fill="#ffffff" fill-opacity="1"/>
	<path d="M25.5,6H23c-0.8,0-1.5,0.7-1.5,1.5S22.2,9,23,9h2.5C26.3,9,27,8.3,27,7.5S26.3,6,25.5,6z" id="svg_4" fill="#ffffff" fill-opacity="1"/>
	<path d="M25.5,11H23c-0.8,0-1.5,0.7-1.5,1.5S22.2,14,23,14h2.5c0.8,0,1.5-0.7,1.5-1.5S26.3,11,25.5,11z" id="svg_5" fill="#ffffff" fill-opacity="1"/>
	<path d="M25.5,17h-12c-0.8,0-1.5,0.7-1.5,1.5s0.7,1.5,1.5,1.5h12c0.8,0,1.5-0.7,1.5-1.5S26.3,17,25.5,17z" id="svg_6" fill="#ffffff" fill-opacity="1"/>
	<path d="M25.5,22h-12c-0.8,0-1.5,0.7-1.5,1.5s0.7,1.5,1.5,1.5h12c0.8,0,1.5-0.7,1.5-1.5S26.3,22,25.5,22z" id="svg_7" fill="#ffffff" fill-opacity="1"/>
</g></g></svg>