<?xml version="1.0" encoding="utf-8"?>
<!-- Generator: Adobe Illustrator 21.0.0, SVG Export Plug-In . SVG Version: 6.00 Build 0)  -->
<svg version="1.1" id="Layer_1" xmlns="http://www.w3.org/2000/svg" xmlns:xlink="http://www.w3.org/1999/xlink" x="0px" y="0px"
	 viewBox="0 0 32 32" style="enable-background:new 0 0 32 32;" xml:space="preserve">
<g>
	<path d="M30.9,4.1c-0.1-0.2-0.2-0.5-0.4-0.6c-0.2-0.2-0.4-0.3-0.6-0.4c-0.6-0.4-1.2-0.6-1.9-0.6H4C2.1,2.5,0.5,4.1,0.5,6v20
		c0,1.9,1.6,3.5,3.5,3.5h24c1.9,0,3.5-1.6,3.5-3.5V6C31.5,5.3,31.3,4.6,30.9,4.1z M4,26.5c-0.3,0-0.5-0.2-0.5-0.5V6
		c0-0.3,0.2-0.5,0.5-0.5h22.4l-5.2,5.2c-2.9,2.9-2.9,7.7,0,10.6l5.2,5.2H4z M28.5,24.4l-5.2-5.2c-1.8-1.8-1.8-4.6,0-6.4l5.2-5.2
		V24.4z"/>
	<path d="M11,12c-2.2,0-4,1.8-4,4c0,2.2,1.8,4,4,4s4-1.8,4-4C15,13.8,13.2,12,11,12z M11,17c-0.6,0-1-0.4-1-1s0.4-1,1-1s1,0.4,1,1
		S11.6,17,11,17z"/>
</g>
</svg>
